<?xml version="1.0" encoding="iso-8859-1"?>
<!-- Generator: Adobe Illustrator 16.0.0, SVG Export Plug-In . SVG Version: 6.00 Build 0)  -->
<!DOCTYPE svg PUBLIC "-//W3C//DTD SVG 1.1//EN" "http://www.w3.org/Graphics/SVG/1.1/DTD/svg11.dtd">
<svg version="1.1" id="Capa_1" xmlns="http://www.w3.org/2000/svg" xmlns:xlink="http://www.w3.org/1999/xlink" x="0px" y="0px"
	 width="573.75px" height="573.75px" viewBox="0 0 573.75 573.75" style="enable-background:new 0 0 573.75 573.75;"
	 xml:space="preserve">
<g>
	<g>
		<rect x="143.438" y="439.875" width="286.875" height="19.125"/>
		<rect x="143.438" y="497.25" width="286.875" height="19.125"/>
		<circle cx="449.438" cy="267.75" r="19.125"/>
		<path d="M506.812,172.125h-38.25V38.25c0-21.038-17.213-38.25-38.25-38.25H143.438c-21.038,0-38.25,17.212-38.25,38.25v133.875
			h-38.25c-32.513,0-57.375,24.862-57.375,57.375v172.125C9.562,434.138,34.425,459,66.938,459h38.25v76.5
			c0,21.037,17.212,38.25,38.25,38.25h286.875c21.037,0,38.25-17.213,38.25-38.25V459h38.25c32.513,0,57.375-24.862,57.375-57.375
			V229.5C564.188,196.987,539.325,172.125,506.812,172.125z M124.312,38.25c0-9.562,7.65-19.125,19.125-19.125h286.875
			c9.562,0,19.125,7.65,19.125,19.125v133.875H124.312V38.25z M449.438,535.5c0,9.562-7.65,19.125-19.125,19.125H143.438
			c-9.562,0-19.125-7.65-19.125-19.125V401.625h325.125V535.5z M545.062,401.625c0,21.037-17.213,38.25-38.25,38.25h-38.25V382.5
			H105.188v57.375h-38.25c-21.038,0-38.25-17.213-38.25-38.25V229.5c0-21.038,17.212-38.25,38.25-38.25h439.875
			c21.037,0,38.25,17.212,38.25,38.25V401.625z"/>
	</g>
</g>
<g>
</g>
<g>
</g>
<g>
</g>
<g>
</g>
<g>
</g>
<g>
</g>
<g>
</g>
<g>
</g>
<g>
</g>
<g>
</g>
<g>
</g>
<g>
</g>
<g>
</g>
<g>
</g>
<g>
</g>
</svg>
